<svg width="26" height="26" xmlns="http://www.w3.org/2000/svg" class="absolute -right-20 top-80 hidden lg:block"><g fill="#001207" fill-rule="evenodd"><path d="M4.052 9.105c1.511 5.166 7.336 10.01 12.985 10.796 1.318.183 2.548.137 3.638-.125l-1.324 1.76c-1.115 1.48-3.224 2.126-5.788 1.768-5.119-.713-10.39-5.08-11.751-9.732-.557-1.901-.362-3.613.547-4.821l1.329-1.765c.03.68.151 1.391.364 2.119M20.55 22.438l3.679-4.886.002-.003a.75.75 0 10-1.198-.902l-.003.003c-1.115 1.478-3.224 2.122-5.785 1.766-5.12-.714-10.39-5.08-11.752-9.732-.556-1.902-.362-3.614.548-4.822A.75.75 0 004.84 2.96l-.002.003L1.161 7.85C-.041 9.444-.32 11.626.372 13.993c1.511 5.166 7.336 10.01 12.984 10.797.532.074 1.05.11 1.55.11 2.43 0 4.439-.863 5.643-2.462"></path><path d="M4.052 9.105c1.511 5.166 7.336 10.01 12.985 10.796 1.318.183 2.548.137 3.638-.125l-1.324 1.76c-1.115 1.48-3.224 2.126-5.788 1.768-5.119-.713-10.39-5.08-11.751-9.732-.557-1.901-.362-3.613.547-4.821l1.329-1.765c.03.68.151 1.391.364 2.119M20.55 22.438l3.679-4.886.002-.003a.75.75 0 10-1.198-.902l-.003.003c-1.115 1.478-3.224 2.122-5.785 1.766-5.12-.714-10.39-5.08-11.752-9.732-.556-1.902-.362-3.614.548-4.822A.75.75 0 004.84 2.96l-.002.003L1.161 7.85C-.041 9.444-.32 11.626.372 13.993c1.511 5.166 7.336 10.01 12.984 10.797.532.074 1.05.11 1.55.11 2.43 0 4.439-.863 5.643-2.462"></path><path d="M11.828 2.094c5.118.713 10.39 5.079 11.751 9.732.592 2.023.338 3.81-.716 5.03-1.148 1.329-3.195 1.898-5.62 1.56-5.118-.714-10.39-5.08-11.751-9.732-.592-2.024-.338-3.81.716-5.03C7.138 2.576 8.66 2 10.496 2c.428 0 .873.031 1.332.095m12.17 15.742c1.398-1.619 1.76-3.903 1.02-6.431-1.51-5.166-7.335-10.01-12.983-10.797C9.098.201 6.56.952 5.073 2.674c-1.398 1.618-1.76 3.902-1.02 6.43 1.51 5.167 7.335 10.01 12.984 10.797.525.073 1.037.11 1.532.11 2.278 0 4.208-.761 5.43-2.175"></path></g></svg>