<svg width="42" height="34" xmlns="http://www.w3.org/2000/svg" class="absolute -right-32 top-40 hidden lg:block"><g fill="none" fill-rule="evenodd"><path d="M1.9 4.68l10.57 19.65.5 4.698L2.4 9.378 1.9 4.68zm12.44 28.786a.751.751 0 00.525-.796l-.92-8.644a.757.757 0 00-.085-.276L1.41.603a.75.75 0 00-1.406.435l.92 8.645c.01.096.04.19.085.276l12.45 23.146a.751.751 0 00.882.361z" fill="#001207"></path><path d="M30.224 11.562l9.001-6.908.735 6.862-25.185 19.33-.734-6.862 16.183-12.422zM14.629 32.845l26.579-20.402a.744.744 0 00.288-.67l-.92-8.605a.752.752 0 00-1.205-.512L12.794 23.057a.747.747 0 00-.289.67l.92 8.606a.748.748 0 00.747.667.75.75 0 00.458-.155z" fill="#191A1B"></path><path d="M16.777 14.698l-1.2.934-.561-1.055 1.761.12zm-.987 2.647l3.424-2.668a.748.748 0 00.254-.804.737.737 0 00-.655-.526l-5.027-.345a.735.735 0 00-.668.339.75.75 0 00-.03.755l1.603 3.012a.738.738 0 00.649.392.73.73 0 00.45-.155z" fill="#001207"></path><path d="M27.164 7.104l-11.447 8.83-5.36-9.972 16.807 1.142zm-11.23 10.558l3.488-2.691-.458-.594.458.594 10.225-7.888a.75.75 0 00-.408-1.341L9.104 4.373a.75.75 0 00-.711 1.104l6.422 11.946a.751.751 0 001.119.239zm21.81-13.437L13.44 22.971 2.053 1.8l35.69 2.426zM13.656 24.699L40.226 4.204a.75.75 0 00-.407-1.342L.8.212A.75.75 0 00.09 1.314L12.54 24.46a.748.748 0 001.117.239z" fill="#191A1B"></path><path d="M10.54 5.626l16.703 1.168-8.38 6.654-4.398-.308-3.925-7.514zm9.009 9.214L29.71 6.773a.782.782 0 00.258-.83.752.752 0 00-.662-.542L9.296 4a.74.74 0 00-.677.35.788.788 0 00-.03.78l4.758 9.11c.122.231.35.383.606.401l5.09.356a.731.731 0 00.506-.158z" fill="#191A1B"></path></g></svg>